# xmcd CD database file
#
# Track frame offsets:
#	150
#	15823
#	27237
#	44201
#	63794
#	78181
#	94224
#	107292
#	117424
#	132737
#	149066
#	157014
#	174668
#	186703
#	203285
#	216204
#	230600
#
# Disc length: 3211 seconds
#
# Revision: 0
# Processed by: cddbd v1.5.1PL2 Copyright (c) Steve Scherf et al.
# Submitted via: NeoAudio 9.9.9
#
DISCID=f20c8911
DTITLE=get up and dance wkshop 43 - get up and dance wkshop 43
DYEAR=1900
DGENRE=Country
TTITLE0=All Jacked Up
TTITLE1=Cupidly Stupid
TTITLE2=Back to Louisuana
TTITLE3=Love Ain't Easy
TTITLE4=Silent Memories
TTITLE5=Say That Yo Love Me
TTITLE6=A Cuppa Tea
TTITLE7=Moonrise
TTITLE8=Irish Stew x
TTITLE9=Make it Up x
TTITLE10=The King and I x
TTITLE11=Body and Soul
TTITLE12=What's Not To Love
TTITLE13=All My Life
TTITLE14=Karen's Chacha
TTITLE15=Funky Chicken
TTITLE16=Roma Lama Ding Dong
EXTD=
EXTT0=
EXTT1=
EXTT2=
EXTT3=
EXTT4=
EXTT5=
EXTT6=
EXTT7=
EXTT8=
EXTT9=
EXTT10=
EXTT11=
EXTT12=
EXTT13=
EXTT14=
EXTT15=
EXTT16=
PLAYORDER=
